<?xml version="1.0" standalone="no"?>
<!DOCTYPE svg PUBLIC "-//W3C//DTD SVG 20010904//EN"
 "http://www.w3.org/TR/2001/REC-SVG-20010904/DTD/svg10.dtd">
<svg version="1.0" xmlns="http://www.w3.org/2000/svg"
 width="759.000000pt" height="797.000000pt" viewBox="0 0 759.000000 797.000000"
 preserveAspectRatio="xMidYMid meet">

<g transform="translate(0.000000,797.000000) scale(0.100000,-0.100000)"
fill="#000000" stroke="none">
<path d="M225 7648 c-3 -7 -4 -1275 -3 -2818 l3 -2805 55 -7 c30 -3 123 -14
205 -23 224 -24 426 -54 555 -81 63 -14 138 -30 165 -35 45 -10 144 -35 375
-98 138 -37 484 -158 611 -214 344 -151 694 -348 886 -499 23 -18 65 -52 95
-75 87 -68 277 -260 373 -378 114 -139 103 -125 176 -225 34 -47 67 -88 73
-92 14 -9 246 -10 349 -2 l76 7 6 51 c44 352 166 974 219 1123 8 23 31 102 50
175 67 253 186 580 336 923 71 163 337 704 412 840 188 337 287 502 482 803
174 268 215 338 193 326 -41 -23 -331 -291 -482 -445 -190 -194 -315 -336
-454 -516 -254 -329 -449 -622 -592 -886 -74 -139 -68 -144 -100 78 -27 190
-36 484 -19 637 23 219 90 490 155 633 118 261 209 409 363 595 273 329 641
609 1123 854 191 98 751 316 810 316 10 0 19 -4 19 -9 0 -4 7 -73 15 -152 62
-609 43 -1183 -56 -1699 -105 -542 -374 -1053 -723 -1375 -193 -178 -456 -349
-751 -489 -98 -47 -182 -91 -187 -98 -31 -47 -204 -643 -189 -652 4 -3 46 10
92 29 46 18 149 59 229 89 149 57 478 218 630 309 236 141 424 282 588 442
569 553 864 1287 943 2345 8 101 10 290 6 540 -5 326 -10 419 -32 610 -27 235
-65 487 -89 593 -8 34 -20 88 -27 120 -7 32 -16 60 -19 62 -9 5 -279 -52 -447
-94 -422 -106 -929 -310 -1296 -522 -407 -235 -708 -468 -951 -737 -267 -295
-463 -605 -582 -922 -53 -142 -124 -416 -151 -582 -26 -161 -26 -752 0 -943
33 -242 111 -581 175 -760 31 -87 37 -116 30 -135 -16 -42 -96 -360 -118 -465
-31 -152 -24 -145 -84 -83 -28 29 -82 80 -121 113 -38 32 -72 61 -75 65 -14
17 -288 216 -375 272 -230 148 -610 341 -855 435 -479 183 -990 319 -1422 379
l-128 17 0 2264 c0 1245 2 2263 5 2263 14 0 394 -84 500 -111 514 -129 1053
-362 1483 -642 420 -274 687 -531 1002 -964 29 -40 58 -73 64 -73 6 0 45 48
86 107 367 525 808 895 1435 1203 328 161 655 284 955 361 85 22 167 45 183
51 l27 10 0 274 c0 160 -4 275 -9 279 -23 13 -583 -139 -711 -194 -14 -5 -88
-33 -165 -62 -257 -94 -600 -252 -785 -360 -185 -108 -242 -144 -370 -232
-208 -143 -311 -229 -527 -439 -67 -65 -125 -118 -129 -118 -4 0 -40 35 -80
78 -179 193 -509 449 -829 644 -466 284 -1078 523 -1705 667 -47 11 -195 38
-330 60 -214 35 -318 49 -582 77 -44 4 -59 3 -63 -8z"/>
</g>
</svg>
